<?xml version="1.0" standalone="no"?>
<!DOCTYPE svg PUBLIC "-//W3C//DTD SVG 20010904//EN"
 "http://www.w3.org/TR/2001/REC-SVG-20010904/DTD/svg10.dtd">
<svg version="1.0" xmlns="http://www.w3.org/2000/svg"
 width="1260.000000pt" height="1350.000000pt" viewBox="0 0 1260.000000 1350.000000"
 preserveAspectRatio="xMidYMid meet">
<metadata>
Created by potrace 1.16, written by Peter Selinger 2001-2019
</metadata>
<g transform="translate(0.000000,1350.000000) scale(0.100000,-0.100000)"
fill="#3BB6E8" stroke="none">
<path d="M7537 11993 c-4 -3 -7 -14 -7 -23 0 -10 -7 -23 -15 -30 -8 -7 -15
-20 -15 -29 0 -10 -13 -30 -30 -46 -16 -16 -30 -39 -30 -51 0 -12 -7 -24 -15
-28 -8 -3 -15 -16 -15 -30 0 -13 -7 -26 -15 -30 -8 -3 -15 -14 -15 -24 0 -10
-13 -31 -30 -47 -16 -16 -30 -39 -30 -51 0 -12 -7 -24 -15 -28 -8 -3 -15 -16
-15 -30 0 -13 -7 -26 -15 -30 -8 -3 -15 -14 -15 -24 0 -10 -13 -31 -30 -47
-16 -16 -30 -36 -30 -45 0 -9 -13 -29 -30 -45 -16 -16 -30 -39 -30 -51 0 -12
-7 -24 -15 -28 -8 -3 -15 -16 -15 -30 0 -13 -7 -26 -15 -30 -8 -3 -15 -14 -15
-24 0 -10 -13 -31 -30 -47 -16 -16 -30 -39 -30 -51 0 -12 -7 -24 -15 -28 -8
-3 -15 -16 -15 -30 0 -13 -7 -26 -15 -30 -8 -3 -15 -16 -15 -30 0 -13 -7 -26
-15 -30 -8 -3 -15 -14 -15 -24 0 -10 -13 -31 -30 -47 -25 -24 -30 -37 -30 -75
0 -38 5 -51 30 -75 17 -16 30 -37 30 -47 0 -10 7 -21 15 -24 8 -4 15 -17 15
-30 0 -14 7 -27 15 -30 8 -4 15 -17 15 -30 0 -14 7 -27 15 -30 8 -4 15 -17 15
-30 0 -14 7 -27 15 -30 8 -4 15 -17 15 -30 0 -14 7 -27 15 -30 8 -4 15 -16 15
-28 0 -12 14 -35 30 -51 17 -16 30 -37 30 -47 0 -10 7 -21 15 -24 8 -4 15 -16
15 -28 0 -12 14 -35 30 -51 17 -16 30 -37 30 -47 0 -10 7 -21 15 -24 8 -4 15
-17 15 -30 0 -14 7 -27 15 -30 8 -4 15 -17 15 -30 0 -14 7 -27 15 -30 8 -4 15
-17 15 -30 0 -14 7 -27 15 -30 8 -4 15 -16 15 -28 0 -12 14 -35 30 -51 17 -16
30 -37 30 -47 0 -10 7 -21 15 -24 8 -4 15 -17 15 -30 0 -14 7 -27 15 -30 8 -4
15 -17 15 -30 0 -14 7 -27 15 -30 8 -4 15 -16 15 -28 0 -12 14 -35 30 -51 17
-16 30 -37 30 -47 0 -10 7 -21 15 -24 8 -4 15 -17 15 -30 0 -14 7 -27 15 -30
8 -4 15 -17 15 -30 0 -14 7 -27 15 -30 8 -4 15 -16 15 -28 0 -12 14 -35 30
-51 17 -16 30 -37 30 -47 0 -10 7 -21 15 -24 8 -4 15 -17 15 -30 0 -14 7 -27
15 -30 8 -4 15 -17 15 -30 0 -14 7 -27 15 -30 8 -4 15 -17 15 -30 0 -14 7 -27
15 -30 8 -4 15 -16 15 -28 0 -12 14 -35 30 -51 17 -16 30 -37 30 -47 0 -10 7
-21 15 -24 8 -4 15 -17 15 -30 0 -14 7 -27 15 -30 8 -4 15 -16 15 -28 0 -12
14 -35 30 -51 17 -16 30 -37 30 -47 0 -10 7 -21 15 -24 8 -4 15 -17 15 -30 0
-14 7 -27 15 -30 8 -4 15 -17 15 -30 0 -14 7 -27 15 -30 8 -4 15 -17 15 -30 0
-14 7 -27 15 -30 8 -4 15 -17 15 -30 0 -14 7 -27 15 -30 8 -4 15 -16 15 -28 0
-12 14 -35 30 -51 25 -24 30 -37 30 -76 0 -29 -6 -51 -15 -59 -8 -7 -15 -23
-15 -35 0 -13 -7 -25 -15 -29 -8 -3 -15 -16 -15 -30 0 -13 -7 -26 -15 -30 -8
-3 -15 -16 -15 -30 0 -13 -7 -26 -15 -30 -8 -3 -15 -16 -15 -30 0 -13 -7 -26
-15 -30 -8 -3 -15 -14 -15 -24 0 -10 -13 -31 -30 -47 -16 -16 -30 -39 -30 -51
0 -12 -7 -24 -15 -28 -8 -3 -15 -16 -15 -30 0 -13 -7 -26 -15 -30 -8 -3 -15
-16 -15 -30 0 -13 -7 -26 -15 -30 -8 -3 -15 -14 -15 -24 0 -10 -13 -31 -30
-47 -16 -16 -30 -39 -30 -51 0 -12 -7 -24 -15 -28 -8 -3 -15 -14 -15 -24 0
-10 -13 -31 -30 -47 -16 -16 -30 -39 -30 -51 0 -12 -7 -24 -15 -28 -8 -3 -15
-14 -15 -24 0 -10 -13 -31 -30 -47 -16 -16 -30 -39 -30 -51 0 -12 -7 -24 -15
-28 -8 -3 -15 -16 -15 -30 0 -13 -7 -26 -15 -30 -8 -3 -15 -14 -15 -24 0 -10
-13 -31 -30 -47 -16 -16 -30 -39 -30 -51 0 -12 -7 -24 -15 -28 -27 -10 -16
-41 30 -86 25 -24 45 -52 45 -62 0 -10 7 -21 15 -24 8 -4 15 -16 15 -28 0 -12
14 -35 30 -51 17 -16 30 -37 30 -47 0 -10 7 -21 15 -24 8 -4 15 -16 15 -28 0
-12 14 -35 30 -51 17 -16 30 -36 30 -44 0 -15 94 -121 107 -121 10 0 42 45 43
60 0 9 20 36 45 60 26 26 45 53 45 66 0 12 7 24 15 28 8 3 15 14 15 24 0 10
14 31 30 47 17 16 30 36 30 45 0 9 20 36 45 60 25 24 45 51 45 60 0 9 20 36
45 60 25 24 45 51 45 60 0 9 14 29 30 45 17 16 30 39 30 51 0 12 7 24 15 28 8
3 15 14 15 24 0 10 14 31 30 47 17 16 30 39 30 51 0 12 7 24 15 28 8 3 15 14
15 24 0 10 14 31 30 47 17 16 30 39 30 51 0 12 7 24 15 28 8 3 15 16 15 30 0
13 7 26 15 30 9 3 15 18 15 39 0 19 7 40 15 47 8 7 15 27 15 45 0 18 7 38 15
45 8 7 15 23 15 35 0 13 7 25 15 29 9 3 15 18 15 39 0 19 7 40 15 47 8 7 15
27 15 45 0 18 7 38 15 45 8 7 15 27 15 45 0 18 7 38 15 45 8 7 15 27 15 45 0
18 7 38 15 45 8 7 15 27 15 45 0 18 7 38 15 45 8 7 15 27 15 45 0 18 7 38 15
45 8 7 15 27 15 45 0 18 7 38 15 45 8 7 15 23 15 35 0 13 7 25 15 29 8 3 15
16 15 30 0 13 7 26 15 30 8 3 15 14 15 24 0 10 14 31 30 47 17 16 30 36 30 45
0 9 14 29 30 45 17 16 30 36 30 45 0 9 14 29 30 45 17 16 30 39 30 51 0 12 7
24 15 28 8 3 15 16 15 30 0 13 7 26 15 30 11 4 15 22 15 69 0 57 -3 66 -30 92
-16 16 -30 37 -30 47 0 10 -7 21 -15 24 -8 4 -15 17 -15 30 0 14 -7 27 -15 30
-8 4 -15 16 -15 28 0 12 -13 35 -30 51 -16 16 -30 37 -30 47 0 10 -7 21 -15
24 -8 4 -15 17 -15 30 0 14 -7 27 -15 30 -8 4 -15 17 -15 30 0 14 -7 27 -15
30 -8 4 -15 17 -15 30 0 14 -7 27 -15 30 -8 4 -15 17 -15 30 0 14 -7 27 -15
30 -8 4 -15 16 -15 28 0 12 -13 35 -30 51 -16 16 -30 37 -30 47 0 10 -7 21
-15 24 -8 4 -15 17 -15 30 0 14 -7 27 -15 30 -8 4 -15 17 -15 30 0 14 -7 27
-15 30 -8 4 -15 16 -15 28 0 12 -13 35 -30 51 -16 16 -30 37 -30 47 0 10 -7
21 -15 24 -8 4 -15 17 -15 30 0 14 -7 27 -15 30 -8 4 -15 17 -15 30 0 14 -7
27 -15 30 -8 4 -15 17 -15 30 0 14 -7 27 -15 30 -8 4 -15 17 -15 30 0 14 -7
27 -15 30 -8 4 -15 16 -15 28 0 12 -13 35 -30 51 -16 16 -30 37 -30 47 0 10
-7 21 -15 24 -8 4 -15 16 -15 28 0 12 -13 35 -30 51 -16 16 -30 37 -30 47 0
10 -7 21 -15 24 -8 4 -15 17 -15 30 0 14 -7 27 -15 30 -8 4 -15 17 -15 30 0
14 -7 27 -15 30 -8 4 -15 17 -15 30 0 14 -7 27 -15 30 -8 4 -15 16 -15 28 0
12 -13 35 -30 51 -16 16 -30 37 -30 47 0 10 -7 21 -15 24 -8 4 -15 17 -15 30
0 14 -7 27 -15 30 -8 4 -15 17 -15 30 0 14 -7 27 -15 30 -8 4 -15 16 -15 28 0
12 -13 35 -30 51 -16 16 -30 37 -30 47 0 10 -7 21 -15 24 -8 4 -15 17 -15 30
0 14 -7 27 -15 30 -8 4 -15 16 -15 28 0 12 -13 35 -30 51 -16 16 -30 37 -30
47 0 10 -7 21 -15 24 -8 4 -15 17 -15 30 0 14 -7 27 -15 30 -8 4 -15 17 -15
30 0 14 -7 27 -15 30 -8 4 -15 17 -15 30 0 14 -7 27 -15 30 -8 4 -15 16 -15
28 0 12 -13 35 -30 51 -16 16 -30 37 -30 47 0 10 -7 21 -15 24 -8 4 -15 17
-15 30 0 14 -7 27 -15 30 -8 4 -15 17 -15 30 0 14 -7 27 -15 30 -8 4 -15 17
-15 30 0 14 -7 27 -15 30 -8 4 -15 16 -15 28 0 39 -61 82 -83 59z"/>
<path d="M4912 10957 c-12 -13 -22 -30 -22 -38 0 -9 -13 -28 -30 -44 -16 -16
-30 -36 -30 -45 0 -9 -13 -29 -30 -45 -16 -16 -30 -39 -30 -51 0 -12 -7 -24
-15 -28 -8 -3 -15 -14 -15 -24 0 -10 -13 -31 -30 -47 -16 -16 -30 -39 -30 -51
0 -12 -7 -24 -15 -28 -8 -3 -15 -14 -15 -24 0 -10 -13 -31 -30 -47 -16 -16
-30 -39 -30 -51 0 -12 -7 -24 -15 -28 -8 -3 -15 -16 -15 -30 0 -13 -7 -27 -16
-30 -9 -3 -14 -15 -12 -28 3 -21 9 -23 67 -26 46 -2 68 1 80 12 15 14 98 16
667 18 l649 3 3 25 c2 14 10 29 18 33 8 4 14 16 14 26 0 9 14 30 30 46 17 16
30 39 30 51 0 12 7 24 15 28 8 3 15 14 15 24 0 10 14 31 30 47 17 16 30 39 30
51 0 12 7 24 15 28 8 3 15 14 15 24 0 10 14 31 30 47 17 16 30 39 30 51 0 12
7 24 15 28 8 3 15 14 15 24 0 10 14 31 30 47 19 18 30 38 28 50 -3 20 -9 20
-714 23 l-710 2 -22 -23z"/>
<path d="M4132 9817 c-30 -30 -52 -62 -52 -74 0 -11 -7 -23 -15 -27 -8 -3 -15
-14 -15 -24 0 -10 -13 -31 -30 -47 -16 -16 -30 -36 -30 -45 0 -9 -13 -29 -30
-45 -16 -16 -30 -39 -30 -51 0 -12 -7 -24 -15 -28 -8 -3 -15 -14 -15 -24 0
-10 -13 -31 -30 -47 -16 -16 -30 -36 -30 -45 0 -9 -13 -29 -30 -45 -16 -16
-30 -37 -30 -47 0 -10 -7 -21 -15 -24 -21 -8 -19 -23 8 -45 21 -17 47 -18 473
-19 389 0 453 2 464 15 9 11 33 15 90 15 57 0 81 -4 90 -15 10 -12 38 -15 134
-15 115 0 124 1 144 23 12 13 22 30 22 38 0 9 14 28 30 44 17 16 30 39 30 51
0 12 7 24 15 28 8 3 15 16 15 30 0 13 7 26 15 30 8 3 15 16 15 30 0 13 7 26
15 30 8 3 15 14 15 24 0 10 14 31 30 47 17 16 30 36 30 45 0 9 14 29 30 45 17
16 30 39 30 51 0 12 7 24 15 28 8 3 15 14 15 25 0 10 14 31 30 44 36 31 36 34
8 58 -22 18 -52 18 -683 19 l-661 0 -52 -53z"/>
<path d="M4140 8535 c-11 -13 -67 -15 -389 -15 l-378 0 -21 -23 c-12 -13 -22
-30 -22 -38 0 -9 -13 -28 -30 -44 -16 -16 -30 -39 -30 -51 0 -12 -7 -24 -15
-28 -8 -3 -15 -16 -15 -30 0 -13 -7 -26 -15 -30 -8 -3 -15 -14 -15 -24 0 -10
-13 -31 -30 -47 -16 -16 -30 -39 -30 -51 0 -12 -7 -24 -15 -28 -8 -3 -15 -14
-15 -24 0 -10 -13 -31 -30 -47 -16 -16 -30 -36 -30 -45 0 -9 -13 -29 -30 -45
-16 -16 -30 -39 -30 -51 0 -12 -7 -24 -15 -28 -8 -3 -15 -14 -15 -24 0 -10
-13 -31 -30 -47 -16 -16 -30 -39 -30 -51 0 -12 -7 -24 -15 -28 -8 -3 -15 -14
-15 -24 0 -10 -13 -31 -30 -47 -16 -16 -30 -36 -30 -45 0 -9 -13 -29 -30 -45
-16 -16 -30 -39 -30 -51 0 -12 -7 -25 -16 -28 -9 -3 -14 -15 -12 -28 l3 -23
710 -3 709 -2 38 37 c21 21 38 47 38 59 0 12 7 24 15 28 8 3 15 14 15 24 0 10
14 31 30 47 17 16 30 39 30 51 0 12 7 24 15 28 8 3 15 16 15 30 0 13 7 26 15
30 8 3 15 14 15 24 0 10 17 35 38 55 l38 37 679 2 680 3 3 21 c2 12 16 34 33
49 16 16 29 39 29 51 0 12 7 24 15 28 8 3 15 16 15 30 0 13 7 26 15 30 8 3 15
14 15 24 0 10 14 31 30 47 17 16 30 39 30 51 0 12 7 24 15 28 8 3 15 14 15 24
0 10 14 31 30 47 17 16 30 39 30 51 0 12 7 24 15 28 8 3 15 14 15 24 0 10 14
31 30 47 19 18 30 38 28 50 -3 20 -9 20 -744 23 -650 2 -743 0 -754 -13 -19
-22 -461 -22 -480 0 -7 8 -20 15 -30 15 -10 0 -23 -7 -30 -15z"/>
<path d="M9652 8257 c-12 -13 -22 -30 -22 -38 0 -9 -13 -28 -30 -44 -16 -16
-30 -39 -30 -51 0 -12 -7 -24 -15 -28 -8 -3 -15 -14 -15 -24 0 -10 -13 -31
-30 -47 -16 -16 -30 -36 -30 -45 0 -9 -13 -29 -30 -45 -16 -16 -30 -39 -30
-51 0 -12 -7 -24 -15 -28 -8 -3 -15 -14 -15 -24 0 -10 -13 -31 -30 -47 -16
-16 -30 -39 -30 -51 0 -12 -7 -24 -15 -28 -8 -3 -15 -14 -15 -24 0 -10 -13
-31 -30 -47 -16 -16 -30 -39 -30 -51 0 -12 -7 -24 -15 -28 -8 -3 -15 -16 -15
-30 0 -13 -7 -26 -15 -30 -8 -3 -15 -14 -15 -24 0 -10 -13 -31 -30 -47 -16
-16 -30 -36 -30 -45 0 -9 -13 -29 -30 -45 -16 -16 -30 -39 -30 -51 0 -12 -7
-24 -15 -28 -8 -3 -15 -16 -15 -30 0 -13 -7 -26 -15 -30 -8 -3 -15 -14 -15
-24 0 -10 -13 -31 -30 -47 -16 -16 -30 -39 -30 -51 0 -12 -7 -24 -15 -28 -24
-9 -17 -40 15 -71 17 -16 30 -36 30 -45 0 -9 14 -29 30 -45 17 -16 30 -37 30
-47 0 -10 7 -21 15 -24 8 -4 15 -17 15 -30 0 -14 7 -27 15 -30 8 -4 15 -16 15
-28 0 -12 14 -35 30 -51 17 -16 30 -36 30 -46 0 -9 7 -22 15 -29 8 -7 15 -27
15 -45 0 -18 -7 -38 -15 -45 -8 -7 -15 -23 -15 -35 0 -13 -7 -25 -15 -29 -9
-3 -15 -18 -15 -39 0 -19 -7 -40 -15 -47 -8 -7 -15 -23 -15 -35 0 -13 -7 -25
-15 -29 -8 -3 -15 -16 -15 -30 0 -13 -7 -26 -15 -30 -8 -3 -15 -14 -15 -24 0
-10 -13 -31 -30 -47 -16 -16 -30 -39 -30 -51 0 -12 -7 -24 -15 -28 -8 -3 -15
-16 -15 -30 0 -13 -7 -26 -15 -30 -8 -3 -15 -16 -15 -30 0 -13 -7 -26 -15 -30
-8 -3 -15 -16 -15 -30 0 -13 -7 -26 -15 -30 -8 -3 -15 -16 -15 -30 0 -13 -7
-26 -15 -30 -8 -3 -15 -16 -15 -30 0 -13 -7 -26 -15 -30 -8 -3 -15 -16 -15
-30 0 -13 -7 -26 -15 -30 -8 -3 -15 -16 -15 -30 0 -13 -7 -26 -15 -30 -8 -3
-15 -16 -15 -30 0 -13 -7 -26 -15 -30 -8 -3 -15 -16 -15 -30 0 -13 -7 -26 -15
-30 -8 -3 -15 -14 -15 -24 0 -10 -13 -31 -30 -47 -16 -16 -30 -39 -30 -51 0
-12 -7 -24 -15 -28 -8 -3 -15 -16 -15 -30 0 -13 -7 -26 -15 -30 -9 -3 -15 -19
-15 -41 0 -22 6 -38 15 -41 8 -4 15 -16 15 -28 0 -12 14 -35 30 -51 17 -16 30
-37 30 -47 0 -10 7 -21 15 -24 8 -4 15 -16 15 -28 0 -12 14 -35 30 -51 17 -16
30 -37 30 -47 0 -10 7 -21 15 -24 8 -4 15 -16 15 -28 0 -12 14 -35 30 -51 17
-16 30 -36 30 -45 0 -9 13 -29 29 -45 17 -15 31 -37 33 -49 2 -11 11 -22 21
-24 25 -5 67 36 67 64 0 12 7 24 15 28 8 3 15 16 15 30 0 13 7 26 15 30 9 3
15 18 15 39 0 24 8 41 30 62 17 16 30 39 30 51 0 12 7 24 15 28 8 3 15 16 15
30 0 13 7 26 15 30 8 3 15 16 15 30 0 13 7 26 15 30 8 3 15 16 15 30 0 13 7
26 15 30 8 3 15 16 15 30 0 13 7 26 15 30 8 3 15 16 15 30 0 13 7 26 15 30 8
3 15 16 15 30 0 13 7 26 15 30 8 3 15 16 15 30 0 13 7 26 15 30 8 3 15 16 15
30 0 13 7 26 15 30 8 3 15 16 15 30 0 13 7 26 15 30 8 3 15 16 15 30 0 13 7
26 15 30 8 3 15 16 15 30 0 13 7 26 15 30 8 3 15 16 15 30 0 13 7 26 15 30 8
3 15 16 15 30 0 13 7 26 15 30 9 3 15 18 15 39 0 24 8 41 30 62 21 20 30 38
30 61 0 17 7 37 15 44 8 7 15 23 15 35 0 13 7 25 15 29 8 3 15 16 15 30 0 13
7 26 15 30 8 3 15 16 15 30 0 13 7 26 15 30 9 3 15 18 15 39 0 19 7 40 15 47
8 7 15 23 15 35 0 13 7 25 15 29 9 3 15 18 15 39 0 19 7 40 15 47 8 7 15 23
15 35 0 13 7 25 15 29 9 3 15 18 15 39 0 19 7 40 15 47 8 7 15 23 15 35 0 13
7 25 15 29 9 3 15 18 15 39 0 19 7 40 15 47 8 7 15 20 15 29 0 10 14 30 30 46
17 16 30 36 30 45 0 9 14 29 30 45 17 16 30 39 30 51 0 12 7 24 15 28 8 3 15
14 15 24 0 10 14 31 30 47 17 16 30 36 30 45 0 9 14 29 30 45 17 16 30 39 30
51 0 12 7 24 15 28 8 3 15 16 15 30 0 13 7 26 15 30 9 3 15 19 15 41 0 22 -6
38 -15 41 -8 4 -15 17 -15 30 0 14 -7 27 -15 30 -8 4 -15 17 -15 30 0 14 -7
27 -15 30 -8 4 -15 16 -15 28 0 12 -13 35 -30 51 -16 16 -30 37 -30 47 0 10
-7 21 -15 24 -8 4 -15 16 -15 28 0 12 -13 35 -30 51 -16 16 -30 37 -30 47 0
10 -7 21 -15 24 -8 4 -15 17 -15 30 0 14 -7 27 -15 30 -8 4 -15 16 -15 28 0
12 -13 35 -30 51 -16 16 -30 37 -30 47 0 10 -7 21 -15 24 -8 4 -15 17 -15 30
0 14 -7 27 -15 30 -8 4 -15 16 -15 28 0 12 -13 35 -30 51 -16 16 -30 36 -30
46 0 9 -6 22 -14 29 -8 6 -16 21 -18 33 -4 31 -39 33 -66 4z"/>
<path d="M2467 6742 c-20 -21 -37 -45 -37 -53 0 -8 -13 -28 -30 -44 -16 -16
-30 -39 -30 -51 0 -12 -7 -24 -15 -28 -8 -3 -15 -14 -15 -24 0 -10 -13 -31
-30 -47 -16 -16 -30 -39 -30 -51 0 -12 -7 -24 -15 -28 -8 -3 -15 -16 -15 -30
0 -13 -7 -26 -15 -30 -8 -3 -15 -14 -15 -24 0 -10 -13 -31 -30 -47 -16 -16
-30 -36 -30 -45 0 -9 -13 -29 -30 -45 -16 -16 -30 -39 -30 -51 0 -12 -7 -24
-15 -28 -8 -3 -15 -14 -15 -24 0 -10 -13 -31 -30 -47 -16 -16 -30 -36 -30 -45
0 -9 -13 -29 -30 -45 -16 -16 -30 -39 -30 -51 0 -12 -7 -24 -15 -28 -8 -3 -15
-14 -15 -24 0 -10 -13 -31 -30 -47 -16 -16 -30 -39 -30 -51 0 -12 -7 -24 -15
-28 -8 -3 -15 -14 -15 -24 0 -10 -13 -31 -30 -47 -16 -16 -30 -36 -30 -45 0
-9 -13 -29 -30 -45 -16 -16 -30 -39 -30 -51 0 -12 -7 -24 -15 -28 -8 -3 -15
-14 -15 -24 0 -10 -13 -31 -30 -47 -16 -16 -30 -39 -30 -51 0 -12 -7 -24 -15
-28 -8 -3 -15 -14 -15 -24 0 -10 -13 -31 -30 -47 -16 -16 -30 -36 -30 -45 0
-9 -13 -29 -30 -45 -16 -16 -30 -39 -30 -51 0 -12 -7 -24 -15 -28 -8 -3 -15
-14 -15 -24 0 -10 -13 -31 -30 -47 -16 -16 -30 -36 -30 -45 0 -9 -13 -29 -30
-45 -16 -16 -30 -39 -30 -51 0 -12 -7 -24 -15 -28 -8 -3 -15 -14 -15 -24 0
-10 -13 -31 -30 -47 -16 -16 -30 -39 -30 -51 0 -12 -7 -24 -15 -28 -8 -3 -15
-14 -15 -24 0 -10 -13 -31 -30 -47 -16 -16 -30 -36 -30 -45 0 -9 -13 -29 -30
-45 -16 -16 -30 -39 -30 -51 0 -12 -7 -24 -15 -28 -8 -3 -15 -14 -15 -24 0
-10 -13 -31 -30 -47 -16 -16 -30 -39 -30 -51 0 -12 -7 -24 -15 -28 -8 -3 -15
-14 -15 -24 0 -10 -13 -31 -30 -47 -16 -16 -30 -36 -30 -45 0 -9 -13 -29 -30
-45 -16 -16 -30 -39 -30 -51 0 -12 -7 -24 -15 -28 -8 -3 -15 -14 -15 -24 0
-10 -13 -31 -30 -47 -16 -16 -30 -36 -30 -45 0 -9 -13 -29 -30 -45 -16 -16
-30 -39 -30 -51 0 -12 -7 -24 -15 -28 -8 -3 -15 -14 -15 -24 0 -10 -20 -38
-45 -62 -26 -26 -45 -53 -45 -66 0 -12 -7 -25 -16 -28 -9 -3 -14 -15 -12 -28
3 -20 10 -23 54 -26 36 -2 54 1 64 13 11 13 85 15 629 15 l618 0 21 23 c12 13
22 33 22 44 0 12 7 23 15 27 8 3 15 14 15 24 0 10 14 31 30 47 17 16 30 36 30
45 0 9 13 29 30 45 17 16 30 39 30 51 0 12 7 24 15 28 8 3 15 14 15 24 0 10
14 31 30 47 17 16 30 36 30 45 0 9 14 29 30 45 17 16 30 36 30 45 0 9 14 29
30 45 17 16 30 36 30 45 0 9 14 29 30 45 17 16 30 39 30 51 0 12 7 24 15 28 8
3 15 16 15 30 0 13 7 26 15 30 8 3 15 14 15 24 0 10 14 31 30 47 17 16 30 39
30 51 0 12 7 24 15 28 8 3 15 14 15 24 0 10 14 31 30 47 17 16 30 36 30 45 0
9 14 29 30 45 17 16 30 39 30 51 0 12 7 24 15 28 8 3 15 14 15 24 0 10 14 31
30 47 17 16 30 39 30 51 0 12 7 24 15 28 8 3 15 14 15 24 0 10 14 31 30 47 17
16 30 39 30 51 0 12 7 24 15 28 8 3 15 14 15 24 0 10 14 31 30 47 17 16 30 36
30 45 0 9 14 29 30 45 17 16 30 39 30 51 0 12 7 24 15 28 8 3 15 14 15 24 0
10 14 31 30 47 17 16 30 39 30 51 0 12 7 24 15 28 8 3 15 14 15 24 0 10 14 31
30 47 17 16 30 36 30 45 0 9 14 29 30 45 17 16 30 39 30 51 0 12 7 24 15 28 8
3 15 16 15 30 0 13 7 26 15 30 8 3 15 14 15 24 0 10 14 31 30 47 17 16 30 36
30 45 0 9 14 29 30 45 17 16 30 37 30 48 0 10 10 27 23 38 21 18 53 18 773 19
l751 0 21 23 c12 13 22 30 22 38 0 9 14 28 30 44 17 16 30 39 30 51 0 12 7 24
15 28 8 3 15 14 15 24 0 10 14 31 30 47 17 16 30 39 30 51 0 12 7 24 15 28 8
3 15 14 15 24 0 10 14 31 30 47 17 16 30 39 30 51 0 12 7 24 15 28 8 3 15 16
15 30 0 13 7 26 15 30 8 3 15 16 15 30 0 13 7 26 15 30 8 3 15 15 15 26 0 11
7 23 15 26 8 4 15 12 15 20 0 12 -213 14 -1418 14 l-1418 0 -37 -38z"/>
<path d="M10657 6474 c-4 -4 -7 -15 -7 -24 0 -9 -13 -29 -30 -45 -16 -16 -30
-39 -30 -51 0 -12 -7 -24 -15 -28 -8 -3 -15 -14 -15 -24 0 -10 -20 -38 -45
-62 -26 -26 -45 -53 -45 -66 0 -12 -7 -24 -15 -28 -8 -3 -15 -14 -15 -24 0
-10 -13 -31 -30 -47 -16 -16 -30 -36 -30 -45 0 -9 -13 -29 -30 -45 -16 -16
-30 -36 -30 -45 0 -9 -13 -29 -30 -45 -16 -16 -30 -36 -30 -45 0 -9 -20 -36
-45 -60 -26 -26 -45 -53 -45 -66 0 -12 -7 -24 -15 -28 -8 -3 -15 -14 -15 -24
0 -10 -13 -31 -30 -47 -16 -16 -30 -36 -30 -45 0 -9 -20 -36 -45 -60 -25 -24
-45 -51 -45 -60 0 -9 -13 -29 -30 -45 -16 -16 -30 -36 -30 -45 0 -9 -13 -29
-30 -45 -21 -20 -30 -38 -30 -60 0 -22 9 -40 30 -60 17 -16 30 -37 30 -47 0
-10 7 -21 15 -24 8 -4 15 -16 15 -28 0 -12 14 -35 30 -51 17 -16 30 -36 30
-45 0 -9 14 -29 30 -45 17 -16 30 -37 30 -47 0 -10 7 -21 15 -24 8 -4 15 -16
15 -28 0 -12 14 -35 30 -51 17 -16 30 -39 30 -52 0 -18 6 -23 25 -23 14 0 28
-7 31 -15 4 -8 11 -15 16 -15 16 0 47 43 48 66 0 12 7 24 15 28 8 3 15 14 15
24 0 10 14 31 30 47 17 16 30 36 30 45 0 9 20 36 45 60 25 24 45 51 45 60 0 9
14 29 30 45 17 16 30 36 30 45 0 9 20 36 45 60 25 24 45 51 45 60 0 9 20 36
45 60 25 24 45 51 45 60 0 9 20 36 45 60 25 24 45 51 45 60 0 9 14 29 30 45
17 16 30 36 30 45 0 9 14 29 30 45 17 16 30 36 30 45 0 9 20 36 45 60 25 24
45 51 45 60 0 9 14 29 30 45 34 32 42 91 15 101 -8 4 -15 17 -15 30 0 14 -7
27 -15 30 -8 4 -15 16 -15 28 0 12 -13 35 -30 51 -16 16 -30 36 -30 45 0 9
-13 29 -30 45 -16 16 -30 37 -30 47 0 10 -7 21 -15 24 -8 4 -15 16 -15 28 0
12 -13 35 -30 51 -16 16 -30 36 -30 45 0 9 -13 29 -29 45 -17 15 -31 37 -33
49 -2 16 -11 22 -38 24 -20 2 -39 0 -43 -4z"/>
<path d="M11257 5124 c-4 -4 -7 -15 -7 -24 0 -9 -13 -29 -30 -45 -16 -16 -30
-36 -30 -45 0 -9 -13 -29 -30 -45 -16 -16 -30 -36 -30 -45 0 -9 -13 -29 -30
-45 -16 -16 -30 -36 -30 -45 0 -9 -13 -29 -30 -45 -16 -16 -30 -36 -30 -45 0
-9 -20 -36 -45 -60 -25 -24 -45 -51 -45 -60 0 -9 -13 -29 -30 -45 -16 -16 -30
-36 -30 -45 0 -9 -13 -29 -30 -45 -16 -16 -30 -36 -30 -45 0 -9 -20 -36 -45
-60 -25 -24 -45 -51 -45 -60 0 -9 -13 -29 -30 -45 -16 -16 -30 -36 -30 -45 0
-9 -20 -36 -45 -60 -40 -40 -45 -49 -45 -90 0 -41 5 -50 45 -90 25 -24 45 -52
45 -62 0 -10 7 -21 15 -24 8 -4 15 -17 15 -30 0 -14 7 -27 15 -30 8 -4 15 -16
15 -28 0 -12 14 -35 30 -51 17 -16 30 -36 30 -45 0 -9 14 -29 30 -45 17 -16
30 -36 30 -45 0 -20 71 -90 91 -90 19 0 89 71 89 91 0 8 20 35 45 59 25 24 45
51 45 60 0 9 20 36 45 60 25 24 45 51 45 60 0 9 14 29 30 45 17 16 30 36 30
45 0 9 14 29 30 45 17 16 30 36 30 45 0 9 20 36 45 60 25 24 45 51 45 60 0 9
14 29 30 45 17 16 30 36 30 45 0 9 14 29 30 45 17 16 30 36 30 45 0 9 20 36
45 60 25 24 45 51 45 60 0 9 14 29 30 45 34 32 42 91 15 101 -8 4 -15 16 -15
28 0 13 -19 40 -45 66 -25 24 -45 51 -45 60 0 9 -13 29 -30 45 -16 16 -30 37
-30 47 0 10 -7 21 -15 24 -8 4 -15 16 -15 28 0 12 -13 35 -30 51 -16 16 -30
36 -30 45 0 9 -13 29 -29 45 -17 15 -31 37 -33 49 -2 16 -11 22 -38 24 -20 2
-39 0 -43 -4z"/>
<path d="M4507 4313 c-14 -13 -7 -74 8 -79 8 -4 15 -17 15 -30 0 -14 7 -27 15
-30 8 -4 15 -16 15 -28 0 -12 14 -35 30 -51 17 -16 30 -37 30 -47 0 -10 7 -21
15 -24 8 -4 15 -17 15 -30 0 -14 7 -27 15 -30 8 -4 15 -17 15 -30 0 -14 7 -27
15 -30 8 -4 15 -16 15 -28 0 -12 14 -35 30 -51 17 -16 30 -37 30 -47 0 -10 7
-21 15 -24 8 -4 15 -17 15 -30 0 -14 7 -27 15 -30 8 -4 15 -16 15 -28 0 -12
14 -35 30 -51 17 -16 30 -37 30 -47 0 -10 7 -21 15 -24 8 -4 15 -17 15 -30 0
-14 7 -27 15 -30 8 -4 15 -17 15 -30 0 -14 7 -27 15 -30 8 -4 15 -16 15 -28 0
-12 14 -35 30 -51 17 -16 30 -37 30 -47 0 -10 7 -21 15 -24 8 -4 15 -17 15
-30 0 -14 7 -27 15 -30 8 -4 15 -16 15 -28 0 -12 14 -35 30 -51 17 -16 30 -37
30 -47 0 -10 7 -21 15 -24 8 -4 15 -17 15 -30 0 -14 7 -27 15 -30 8 -4 15 -17
15 -30 0 -14 7 -27 15 -30 8 -4 15 -17 15 -30 0 -14 7 -27 15 -30 8 -4 15 -16
15 -28 0 -12 14 -35 30 -51 17 -16 30 -37 30 -47 0 -10 7 -21 15 -24 8 -4 15
-17 15 -30 0 -14 7 -27 15 -30 8 -4 15 -17 15 -30 0 -14 7 -27 15 -30 8 -4 15
-16 15 -28 0 -12 14 -35 30 -51 17 -16 30 -37 30 -47 0 -10 7 -21 15 -24 8 -4
15 -17 15 -30 0 -14 7 -27 15 -30 8 -4 15 -17 15 -30 0 -14 7 -27 15 -30 8 -4
15 -17 15 -30 0 -14 7 -27 15 -30 8 -4 15 -16 15 -28 0 -12 14 -35 30 -51 17
-16 30 -37 30 -47 0 -10 7 -21 15 -24 8 -4 15 -17 15 -30 0 -14 7 -27 15 -30
8 -4 15 -17 15 -30 0 -14 7 -27 15 -30 8 -4 15 -16 15 -28 0 -12 17 -38 38
-59 l38 -37 590 2 589 3 3 38 c2 26 -1 39 -12 43 -9 3 -16 17 -16 30 0 14 -7
27 -15 30 -8 4 -15 16 -15 28 0 12 -13 35 -30 51 -16 16 -30 37 -30 47 0 10
-7 21 -15 24 -8 4 -15 17 -15 30 0 14 -7 27 -15 30 -8 4 -15 16 -15 28 0 12
-13 35 -30 51 -16 16 -30 37 -30 47 0 10 -7 21 -15 24 -8 4 -15 17 -15 30 0
14 -7 27 -15 30 -8 4 -15 17 -15 30 0 14 -7 27 -15 30 -8 4 -15 17 -15 30 0
14 -7 27 -15 30 -8 4 -15 17 -15 30 0 14 -7 27 -15 30 -8 4 -15 16 -15 28 0
12 -13 35 -30 51 -16 16 -30 37 -30 47 0 10 -7 21 -15 24 -8 4 -15 17 -15 30
0 14 -7 27 -15 30 -8 4 -15 17 -15 30 0 14 -7 27 -15 30 -8 4 -15 17 -15 30 0
14 -7 27 -15 30 -8 4 -15 16 -15 28 0 12 -13 35 -30 51 -16 16 -30 37 -30 46
0 10 -6 22 -14 26 -8 4 -16 19 -18 33 l-3 25 -230 5 c-247 5 -275 11 -275 58
0 12 -7 25 -15 28 -8 4 -15 17 -15 30 0 14 -7 27 -15 30 -8 4 -15 16 -15 28 0
12 -13 35 -30 51 -16 16 -30 37 -30 47 0 10 -7 21 -15 24 -8 4 -15 17 -15 30
0 14 -7 27 -15 30 -8 4 -15 16 -15 28 0 12 -13 35 -30 51 -16 16 -30 37 -30
47 0 10 -7 21 -15 24 -8 4 -15 17 -15 30 0 14 -7 27 -15 30 -8 4 -15 17 -15
30 0 14 -7 27 -15 30 -8 4 -15 17 -15 30 0 14 -7 27 -15 30 -8 4 -15 17 -15
30 0 14 -7 27 -15 30 -8 4 -15 16 -15 28 0 12 -13 35 -30 51 -21 20 -30 38
-30 60 0 22 -9 40 -30 60 -16 16 -30 37 -30 47 0 10 -7 21 -15 24 -8 4 -15 16
-15 28 0 13 -10 32 -23 44 -20 19 -35 22 -99 22 -55 0 -79 4 -88 15 -11 13
-57 15 -300 15 -157 0 -290 -3 -293 -7z"/>
<path d="M6457 4313 c-13 -12 -7 -44 8 -49 8 -4 15 -17 15 -30 0 -14 7 -27 15
-30 8 -4 15 -17 15 -30 0 -14 7 -27 15 -30 8 -4 15 -16 15 -28 0 -12 14 -35
30 -51 17 -16 30 -37 30 -47 0 -10 7 -21 15 -24 8 -4 15 -17 15 -30 0 -14 7
-27 15 -30 8 -4 15 -17 15 -30 0 -14 7 -27 15 -30 8 -4 15 -16 15 -28 0 -12
14 -35 30 -51 17 -16 30 -37 30 -47 0 -10 7 -21 15 -24 8 -4 15 -17 15 -30 0
-14 7 -27 15 -30 8 -4 15 -16 15 -28 0 -12 14 -35 30 -51 17 -16 30 -37 30
-47 0 -10 7 -21 15 -24 8 -4 15 -16 15 -28 0 -12 14 -35 30 -51 17 -16 30 -37
30 -47 0 -10 7 -21 15 -24 8 -4 15 -17 15 -30 0 -14 7 -27 15 -30 8 -4 15 -17
15 -30 0 -14 7 -27 15 -30 8 -4 15 -16 15 -28 0 -12 14 -35 30 -51 17 -16 30
-37 30 -47 0 -10 7 -21 15 -24 8 -4 15 -17 15 -30 0 -14 7 -27 15 -30 8 -4 15
-16 15 -28 0 -12 14 -35 30 -51 17 -16 30 -37 30 -47 0 -10 7 -21 15 -24 8 -4
15 -16 15 -28 0 -12 14 -35 30 -51 17 -16 30 -37 30 -47 0 -10 7 -21 15 -24 8
-4 15 -17 15 -30 0 -14 7 -27 15 -30 8 -4 15 -16 15 -28 0 -12 14 -35 30 -51
17 -16 30 -37 30 -47 0 -10 7 -21 15 -24 8 -4 15 -17 15 -30 0 -14 7 -27 15
-30 8 -4 15 -17 15 -30 0 -14 7 -27 15 -30 8 -4 15 -16 15 -28 0 -12 14 -35
30 -51 17 -16 30 -37 30 -47 0 -10 7 -21 15 -24 8 -4 15 -17 15 -30 0 -14 7
-27 15 -30 8 -4 15 -17 15 -30 0 -14 7 -27 15 -30 8 -4 15 -17 15 -30 0 -14 7
-27 15 -30 8 -4 15 -17 15 -30 0 -14 7 -27 15 -30 8 -4 15 -16 15 -28 0 -12
17 -38 38 -59 l38 -37 1804 2 1805 3 3 35 c2 28 -3 41 -28 65 -16 16 -30 37
-30 47 0 10 -7 21 -15 24 -8 4 -15 16 -15 28 0 12 -13 35 -30 51 -16 16 -30
37 -30 47 0 10 -7 21 -15 24 -8 4 -15 17 -15 30 0 14 -7 27 -15 30 -8 4 -15
17 -15 30 0 14 -7 27 -15 30 -8 4 -15 16 -15 28 0 12 -13 35 -30 51 -16 16
-30 37 -30 47 0 10 -7 21 -15 24 -8 4 -15 16 -15 28 0 12 -13 35 -30 51 -16
16 -30 37 -30 47 0 10 -7 21 -15 24 -8 4 -15 17 -15 30 0 14 -7 27 -15 30 -8
4 -15 16 -15 28 0 12 -13 35 -30 51 -16 16 -30 37 -30 47 0 10 -7 21 -15 24
-8 4 -15 17 -15 30 0 14 -7 27 -15 30 -8 4 -15 16 -15 28 0 12 -13 35 -30 51
-16 16 -30 37 -30 47 0 10 -7 21 -15 24 -8 4 -15 16 -15 28 0 12 -17 38 -38
59 l-38 37 -1402 0 -1402 0 0 23 c0 13 -13 36 -30 52 -16 16 -30 37 -30 47 0
10 -7 21 -15 24 -8 4 -15 17 -15 30 0 14 -7 27 -15 30 -8 4 -15 17 -15 30 0
14 -7 27 -15 30 -8 4 -15 16 -15 28 0 12 -13 35 -30 51 -16 16 -30 37 -30 47
0 10 -7 21 -15 24 -8 4 -15 17 -15 30 0 14 -7 27 -15 30 -8 4 -15 17 -15 30 0
14 -7 27 -15 30 -8 4 -15 16 -15 28 0 12 -13 35 -30 51 -16 16 -30 37 -30 47
0 10 -7 21 -15 24 -8 4 -15 17 -15 30 0 14 -7 27 -15 30 -8 4 -15 17 -15 30 0
14 -7 27 -15 30 -8 4 -15 16 -15 28 0 12 -13 35 -30 51 -16 16 -30 37 -30 47
0 10 -7 21 -15 24 -8 4 -15 17 -15 30 0 14 -7 27 -15 30 -8 4 -15 16 -15 28 0
42 -39 66 -107 66 -42 0 -64 5 -73 15 -11 13 -62 15 -345 15 -182 0 -335 -3
-338 -7z"/>
<path d="M2227 3173 c-4 -3 -7 -27 -7 -53 0 -38 5 -51 30 -75 17 -16 30 -37
30 -47 0 -10 7 -21 15 -24 8 -4 15 -17 15 -30 0 -14 7 -27 15 -30 8 -4 15 -16
15 -28 0 -12 14 -35 30 -51 17 -16 30 -37 30 -47 0 -10 7 -21 15 -24 8 -4 15
-17 15 -30 0 -14 7 -27 15 -30 8 -4 15 -17 15 -30 0 -14 7 -27 15 -30 8 -4 15
-16 15 -28 0 -12 14 -35 30 -51 17 -16 30 -37 30 -47 0 -10 7 -21 15 -24 8 -4
15 -17 15 -30 0 -14 7 -27 15 -30 8 -4 15 -17 15 -30 0 -14 7 -27 15 -30 8 -4
15 -17 15 -30 0 -14 7 -27 15 -30 8 -4 15 -16 15 -28 0 -12 14 -35 30 -51 17
-16 30 -37 30 -47 0 -10 7 -21 15 -24 8 -4 15 -17 15 -30 0 -14 7 -27 15 -30
8 -4 15 -17 15 -30 0 -14 7 -27 15 -30 8 -4 15 -17 15 -30 0 -14 7 -27 15 -30
8 -4 15 -17 15 -30 0 -14 7 -27 15 -30 8 -4 15 -16 15 -28 0 -13 10 -32 23
-44 23 -22 25 -22 403 -20 l379 3 3 23 c2 13 -3 25 -12 28 -9 3 -16 17 -16 30
0 14 -7 27 -15 30 -8 4 -15 17 -15 30 0 14 -7 27 -15 30 -8 4 -15 16 -15 28 0
12 -13 35 -30 51 -16 16 -30 37 -30 47 0 10 -7 21 -15 24 -8 4 -15 17 -15 30
0 14 -7 27 -15 30 -8 4 -15 16 -15 28 0 12 -13 35 -30 51 -16 16 -30 37 -30
47 0 10 -7 21 -15 24 -8 4 -15 17 -15 30 0 14 -7 27 -15 30 -8 4 -15 17 -15
30 0 14 -7 27 -15 30 -8 4 -15 17 -15 30 0 14 -7 27 -15 30 -8 4 -15 17 -15
30 0 14 -7 27 -15 30 -8 4 -15 16 -15 28 0 12 -13 35 -30 51 -16 16 -30 37
-30 47 0 10 -7 21 -15 24 -8 4 -15 17 -15 30 0 14 -7 27 -15 30 -8 4 -15 17
-15 30 0 14 -7 27 -15 30 -8 4 -15 17 -15 30 0 14 -7 27 -15 30 -8 4 -15 16
-15 28 0 12 -13 35 -30 51 -21 20 -30 38 -30 60 0 34 -34 75 -62 75 -9 0 -21
7 -28 15 -11 13 -63 15 -360 15 -190 0 -350 -3 -353 -7z"/>
<path d="M3577 3173 c-18 -18 -6 -70 23 -98 17 -16 30 -37 30 -47 0 -10 7 -21
15 -24 8 -4 15 -17 15 -30 0 -14 7 -27 15 -30 8 -4 15 -17 15 -30 0 -14 7 -27
15 -30 8 -4 15 -16 15 -28 0 -12 14 -35 30 -51 17 -16 30 -37 30 -47 0 -10 7
-21 15 -24 8 -4 15 -17 15 -30 0 -14 7 -27 15 -30 8 -4 15 -17 15 -30 0 -14 7
-27 15 -30 8 -4 15 -17 15 -30 0 -14 7 -27 15 -30 8 -4 15 -17 15 -30 0 -14 7
-27 15 -30 8 -4 15 -17 15 -30 0 -14 7 -27 15 -30 8 -4 15 -17 15 -30 0 -14 7
-27 15 -30 8 -4 15 -16 15 -28 0 -12 14 -35 30 -51 17 -16 30 -37 30 -47 0
-10 7 -21 15 -24 8 -4 15 -17 15 -30 0 -14 7 -27 15 -30 8 -4 15 -17 15 -30 0
-14 7 -27 15 -30 8 -4 15 -17 15 -30 0 -14 7 -27 15 -30 8 -4 15 -17 15 -30 0
-14 7 -27 15 -30 8 -4 15 -16 15 -28 0 -13 10 -32 23 -44 24 -22 24 -22 448
-20 417 3 424 3 427 23 2 12 -9 32 -28 50 -16 16 -30 37 -30 47 0 10 -7 21
-15 24 -8 4 -15 16 -15 28 0 12 -13 35 -30 51 -16 16 -30 37 -30 47 0 10 -7
21 -15 24 -8 4 -15 17 -15 30 0 14 -7 27 -15 30 -8 4 -15 17 -15 30 0 14 -7
27 -15 30 -8 4 -15 17 -15 30 0 14 -7 27 -15 30 -8 4 -15 17 -15 30 0 14 -7
27 -15 30 -8 4 -15 17 -15 30 0 14 -7 27 -15 30 -8 4 -15 16 -15 28 0 12 -13
35 -30 51 -16 16 -30 37 -30 47 0 10 -7 21 -15 24 -8 4 -15 17 -15 30 0 14 -7
27 -15 30 -8 4 -15 17 -15 30 0 14 -7 27 -15 30 -8 4 -15 16 -15 28 0 12 -13
35 -30 51 -16 16 -30 37 -30 47 0 10 -7 21 -15 24 -8 4 -15 17 -15 30 0 14 -7
27 -15 30 -8 4 -15 17 -15 30 0 14 -7 27 -15 30 -8 4 -15 17 -15 30 0 14 -7
27 -15 30 -8 4 -15 16 -15 28 0 13 -10 32 -23 44 -23 22 -26 22 -428 22 -223
0 -409 -3 -412 -7z"/>
</g>
</svg>
