<svg xmlns="http://www.w3.org/2000/svg" viewBox="72 82 776 709"><g fill="#FFFFFF"><path d="M 508.45 165.20 L 607.21 336.26 L 558.89 419.95 L 580.94 458.14 L 675.88 293.71 L 558.27 90.00 L 551.87 90.00 Z"/><path d="M 350.64 198.03 L 442.79 198.03 L 461.93 164.88 L 460.13 161.77 L 371.58 161.77 Z"/><path d="M 329.32 231.82 L 299.32 283.78 L 301.00 286.69 L 391.41 286.69 L 423.09 231.82 Z"/><path d="M 271.98 328.37 L 229.57 401.82 L 324.41 401.82 L 345.69 364.95 L 441.80 364.95 L 462.92 328.37 Z"/><path d="M 655.29 424.36 L 676.63 461.32 L 628.70 544.35 L 649.90 581.07 L 744.92 416.49 L 702.38 342.80 Z"/><path d="M 202.39 448.93 L 80.00 660.91 L 172.20 660.91 L 272.37 487.40 L 369.99 487.40 L 392.21 448.93 Z"/><path d="M 721.70 538.89 L 753.08 593.25 L 799.69 512.53 L 770.46 461.91 L 766.15 461.91 Z"/><path d="M 772.93 628.76 L 793.61 664.57 L 839.52 585.06 L 820.59 552.27 L 817.09 552.27 Z"/><path d="M 438.30 780.08 L 523.05 780.08 L 476.48 699.43 L 434.45 699.43 L 385.81 615.17 L 343.09 615.17 Z"/><path d="M 579.50 782.55 L 821.68 782.55 L 774.36 700.60 L 576.32 700.60 L 528.41 617.62 L 484.28 617.62 Z"/><path d="M 244.59 776.59 L 285.84 776.59 L 240.07 697.31 L 198.82 697.31 Z"/><path d="M 326.44 778.41 L 388.96 778.41 L 342.47 697.88 L 279.95 697.88 Z"/></g></svg>
